<?xml version="1.0" standalone="no"?>
<!DOCTYPE svg PUBLIC "-//W3C//DTD SVG 20010904//EN"
 "http://www.w3.org/TR/2001/REC-SVG-20010904/DTD/svg10.dtd">
<svg version="1.0" xmlns="http://www.w3.org/2000/svg"
 width="512.000000pt" height="512.000000pt" viewBox="0 0 512.000000 512.000000"
 preserveAspectRatio="xMidYMid meet">

<g transform="translate(0.000000,512.000000) scale(0.100000,-0.100000)"
fill="#000000" stroke="none">
<path d="M2450 4793 c-536 -29 -1052 -252 -1429 -617 -207 -201 -345 -390
-467 -641 -222 -457 -281 -960 -173 -1465 50 -232 178 -530 316 -740 555 -839
1603 -1206 2558 -894 518 169 954 521 1232 992 151 256 251 553 294 872 15
114 15 402 0 520 -68 516 -286 965 -640 1319 l-86 86 -3 -143 -3 -142 67 -78
c340 -396 520 -980 463 -1500 -52 -483 -254 -906 -591 -1239 -199 -197 -393
-328 -638 -431 -1091 -460 -2342 106 -2714 1228 -81 244 -112 458 -103 710 41
1124 978 1999 2097 1957 85 -3 196 -13 245 -21 50 -9 96 -16 103 -16 9 0 12
27 12 103 l0 104 -78 12 c-89 13 -319 31 -372 29 -19 -1 -60 -3 -90 -5z"/>
<path d="M1340 3077 c-14 -7 -33 -28 -43 -48 -15 -31 -16 -46 -7 -109 26 -184
139 -344 299 -423 61 -30 72 -32 171 -32 99 0 110 2 171 32 159 79 273 239
299 422 15 108 -11 158 -88 168 -33 4 -44 1 -72 -24 -29 -26 -34 -38 -41 -98
-22 -183 -172 -327 -308 -296 -117 26 -212 150 -230 300 -7 55 -13 69 -40 93
-34 30 -70 35 -111 15z"/>
<path d="M2931 3076 c-52 -29 -63 -91 -36 -205 63 -267 303 -453 531 -412 210
39 389 249 411 485 9 97 -28 146 -112 146 -59 0 -84 -32 -101 -128 -17 -98
-40 -147 -97 -210 -101 -110 -233 -110 -334 0 -57 63 -80 112 -97 210 -12 67
-20 87 -41 105 -30 26 -86 30 -124 9z"/>
<path d="M2465 2019 c-352 -27 -658 -205 -855 -498 -59 -88 -110 -202 -110
-246 0 -76 95 -123 159 -79 12 9 37 49 56 89 132 290 394 484 710 525 101 13
291 -2 393 -30 260 -72 465 -248 577 -495 25 -54 43 -80 67 -95 80 -48 168 -1
168 90 0 70 -116 268 -230 392 -125 137 -327 260 -511 312 -81 23 -249 48
-301 45 -13 -1 -68 -5 -123 -10z"/>
</g>
</svg>
